<?xml version="1.0" encoding="UTF-8"?>
<svg id="Layer_2" data-name="Layer 2" xmlns="http://www.w3.org/2000/svg" viewBox="0 0 192.96 192.96">
  <defs>
    <style>
      .cls-1 {
        stroke: #58595b;
      }

      .cls-1, .cls-2, .cls-3 {
        fill: none;
        stroke-miterlimit: 10;
      }

      .cls-4 {
        fill: #414042;
      }

      .cls-4, .cls-5, .cls-6 {
        stroke-width: 0px;
      }

      .cls-5 {
        fill: rgba(255, 255, 255, .75);
      }

      .cls-2 {
        stroke: #bcbec0;
      }

      .cls-6 {
        fill: #fff;
      }

      .cls-3 {
        stroke: #808285;
      }
    </style>
  </defs>
  <g id="Layer_2-2" data-name="Layer 2">
    <circle class="cls-4" cx="96.48" cy="96.48" r="94.67"/>
    <circle class="cls-5" cx="96.48" cy="96.48" r="77.91"/>
    <circle class="cls-1" cx="96.48" cy="96.48" r="75.72"/>
    <circle class="cls-3" cx="96.48" cy="96.48" r="69.85"/>
    <circle class="cls-4" cx="96.48" cy="96.48" r="20.8"/>
    <circle class="cls-2" cx="96.48" cy="96.48" r="22.73"/>
    <circle class="cls-4" cx="182" cy="10.96" r="10.96"/>
    <circle class="cls-6" cx="182" cy="10.96" r="8.56"/>
    <path class="cls-4" d="M186.41,9.29l-3.27.3-.3-3.27c-.03-.34-.34-.6-.68-.57l-1.25.12c-.34.03-.6.34-.57.68l.3,3.27-3.27.3c-.34.03-.6.34-.57.68l.12,1.25c.03.34.34.6.68.57l3.27-.3.3,3.27c.03.34.34.6.68.57l1.25-.12c.34-.03.6-.34.57-.68l-.3-3.27,3.27-.3c.34-.03.6-.34.57-.68l-.12-1.25c-.03-.34-.34-.6-.68-.57Z"/>
    <circle class="cls-4" cx="10.96" cy="10.96" r="10.96"/>
    <circle class="cls-6" cx="10.96" cy="10.96" r="8.56"/>
    <path class="cls-4" d="M14.37,14.21l-1.69-2.82,2.82-1.69c.3-.18.39-.56.22-.86l-.65-1.08c-.18-.3-.56-.39-.86-.22l-2.82,1.69-1.69-2.82c-.18-.3-.56-.39-.86-.22l-1.08.65c-.3.18-.39.56-.22.86l1.69,2.82-2.82,1.69c-.3.18-.39.56-.22.86l.65,1.08c.18.3.56.39.86.22l2.82-1.69,1.69,2.82c.18.3.56.39.86.22l1.08-.65c.3-.18.39-.56.22-.86Z"/>
    <circle class="cls-4" cx="10.96" cy="182" r="10.96"/>
    <circle class="cls-6" cx="10.96" cy="182" r="8.56"/>
    <path class="cls-4" d="M15.66,181.62l-3.23-.62.62-3.23c.07-.34-.16-.67-.5-.73l-1.24-.24c-.34-.07-.67.16-.73.5l-.62,3.23-3.23-.62c-.34-.07-.67.16-.73.5l-.24,1.24c-.07.34.16.67.5.73l3.23.62-.62,3.23c-.07.34.16.67.5.73l1.24.24c.34.07.67-.16.73-.5l.62-3.23,3.23.62c.34.07.67-.16.73-.5l.24-1.24c.07-.34-.16-.67-.5-.73Z"/>
    <circle class="cls-4" cx="182" cy="182" r="10.96"/>
    <circle class="cls-6" cx="182" cy="182" r="8.56"/>
    <path class="cls-4" d="M185.76,179.16l-3.06,1.21-1.21-3.06c-.13-.32-.49-.48-.81-.35l-1.17.46c-.32.13-.48.49-.35.81l1.21,3.06-3.06,1.21c-.32.13-.48.49-.35.81l.46,1.17c.13.32.49.48.81.35l3.06-1.21,1.21,3.06c.13.32.49.48.81.35l1.17-.46c.32-.13.48-.49.35-.81l-1.21-3.06,3.06-1.21c.32-.13.48-.49.35-.81l-.46-1.17c-.13-.32-.49-.48-.81-.35Z"/>
  </g>
</svg>